# xmcd
#
# Track frame offsets:
# 150
# 15525
# 32134
# 43115
# 64472
# 83380
# 94355
# 105226
# 121802
# 135846
# 150944
# 163689
# 180219
#
# Disc length: 2553 seconds
#
#
# Revision: 0
# Processed by: cddbd v1.5.2PL0 Copyright (c) Steve Scherf et al.
# Submitted via: FreeRIP 2.944 
#
DISCID=8d09f70d
DTITLE=Slim Dusty - The Slim Dusty Family Album
DYEAR=1980
DGENRE=Country
TTITLE0=What I Am
TTITLE1=Old Time Christmas
TTITLE2=Trouble
TTITLE3=Local Mary Magdelen
TTITLE4=Memories
TTITLE5=Country Revival
TTITLE6=Country Music in Our Bone
TTITLE7=My Old China Plate
TTITLE8=Old Sunlander Van
TTITLE9=Feeling Sorry For Me
TTITLE10=Rodeo Clown
TTITLE11=Wind Up Gramophone
TTITLE12=Nobody Heard
EXTD=
EXTT0=
EXTT1=
EXTT2=
EXTT3=
EXTT4=
EXTT5=
EXTT6=
EXTT7=
EXTT8=
EXTT9=
EXTT10=
EXTT11=
EXTT12=
PLAYORDER=
